<?xml version="1.0" encoding="UTF-8" standalone="no"?>
<!DOCTYPE svg PUBLIC "-//W3C//DTD SVG 1.1//EN"
 "http://www.w3.org/Graphics/SVG/1.1/DTD/svg11.dtd">
<!-- Generated by graphviz version 2.43.0 (0)
 -->
<!-- Title: g Pages: 1 -->
<svg width="2063pt" height="548pt"
 viewBox="0.00 0.00 2063.00 548.00" xmlns="http://www.w3.org/2000/svg" xmlns:xlink="http://www.w3.org/1999/xlink">
<g id="graph0" class="graph" transform="scale(1 1) rotate(0) translate(4 544)">
<title>g</title>
<polygon fill="white" stroke="transparent" points="-4,4 -4,-544 2059,-544 2059,4 -4,4"/>
<!-- tsp_tempSensor -->
<g id="node1" class="node">
<title>tsp_tempSensor</title>
<polygon fill="none" stroke="black" points="300.5,-124 300.5,-148 783.5,-148 783.5,-124 300.5,-124"/>
<text text-anchor="start" x="469.5" y="-133.2" font-family="Times,serif" font-weight="bold" font-size="16.00">tsp_tempSensor</text>
<polygon fill="none" stroke="black" points="300.5,-100 300.5,-124 783.5,-124 783.5,-100 300.5,-100"/>
<text text-anchor="start" x="311" y="-109.2" font-family="Times,serif" font-size="16.00" fill="red">dataport sp_union_art_DataContent_t </text>
<text text-anchor="start" x="627" y="-109.2" font-family="Times,serif" font-weight="bold" font-size="16.00" fill="red">sb_currentTemp</text>
<polygon fill="none" stroke="black" points="300.5,-76 300.5,-100 783.5,-100 783.5,-76 300.5,-76"/>
<text text-anchor="start" x="303.5" y="-85.2" font-family="Times,serif" font-size="16.00" fill="red">dataport sb_event_counter_t </text>
<text text-anchor="start" x="545.5" y="-85.2" font-family="Times,serif" font-weight="bold" font-size="16.00" fill="red">sb_tempChanged_counter</text>
<polygon fill="none" stroke="black" points="300.5,-52 300.5,-76 783.5,-76 783.5,-52 300.5,-52"/>
<text text-anchor="start" x="379.5" y="-61.2" font-family="Times,serif" font-size="16.00" fill="blue">emits ReceiveEvent </text>
<text text-anchor="start" x="548.5" y="-61.2" font-family="Times,serif" font-weight="bold" font-size="16.00" fill="blue">sb_tempChanged</text>
<polygon fill="none" stroke="black" points="300.5,-28 300.5,-52 783.5,-52 783.5,-28 300.5,-28"/>
<text text-anchor="start" x="396" y="-37.2" font-family="Times,serif" font-size="16.00" fill="blue">emits TickTock </text>
<text text-anchor="start" x="525" y="-37.2" font-family="Times,serif" font-weight="bold" font-size="16.00" fill="blue">sb_self_pacer_tick</text>
<polygon fill="none" stroke="black" points="300.5,-4 300.5,-28 783.5,-28 783.5,-4 300.5,-4"/>
<text text-anchor="start" x="376" y="-13.2" font-family="Times,serif" font-size="16.00" fill="blue">consumes TickTock </text>
<text text-anchor="start" x="541" y="-13.2" font-family="Times,serif" font-weight="bold" font-size="16.00" fill="blue">sb_self_pacer_tock</text>
</g>
<!-- tsp_tempSensor&#45;&gt;tsp_tempSensor -->
<g id="conn8" class="edge">
<title>tsp_tempSensor:sb_self_pacer_tick&#45;&gt;tsp_tempSensor:sb_self_pacer_tock</title>
<path fill="none" stroke="blue" d="M300.33,-45.67C146.98,-46.24 0,-41.38 0,-28 0,-14.92 140.46,-9.99 290.01,-10.3"/>
<polygon fill="blue" stroke="blue" points="290.32,-13.8 300.33,-10.33 290.34,-6.8 290.32,-13.8"/>
</g>
<!-- tcp_tempControl -->
<g id="node2" class="node">
<title>tcp_tempControl</title>
<polygon fill="none" stroke="black" points="835,-172 835,-196 1419,-196 1419,-172 835,-172"/>
<text text-anchor="start" x="1051.5" y="-181.2" font-family="Times,serif" font-weight="bold" font-size="16.00">tcp_tempControl</text>
<polygon fill="none" stroke="black" points="835,-148 835,-172 1419,-172 1419,-148 835,-148"/>
<text text-anchor="start" x="896" y="-157.2" font-family="Times,serif" font-size="16.00" fill="red">dataport sp_union_art_DataContent_t </text>
<text text-anchor="start" x="1212" y="-157.2" font-family="Times,serif" font-weight="bold" font-size="16.00" fill="red">sb_currentTemp</text>
<polygon fill="none" stroke="black" points="835,-124 835,-148 1419,-148 1419,-124 835,-124"/>
<text text-anchor="start" x="851.5" y="-133.2" font-family="Times,serif" font-size="16.00" fill="red">dataport sb_queue_union_art_DataContent_1_t </text>
<text text-anchor="start" x="1245.5" y="-133.2" font-family="Times,serif" font-weight="bold" font-size="16.00" fill="red">sb_fanAck_queue</text>
<polygon fill="none" stroke="black" points="835,-100 835,-124 1419,-124 1419,-100 835,-100"/>
<text text-anchor="start" x="838" y="-109.2" font-family="Times,serif" font-size="16.00" fill="red">dataport sb_queue_union_art_DataContent_1_t </text>
<text text-anchor="start" x="1232" y="-109.2" font-family="Times,serif" font-weight="bold" font-size="16.00" fill="red">sb_fanCmd_queue_1</text>
<polygon fill="none" stroke="black" points="835,-76 835,-100 1419,-100 1419,-76 835,-76"/>
<text text-anchor="start" x="888.5" y="-85.2" font-family="Times,serif" font-size="16.00" fill="red">dataport sb_event_counter_t </text>
<text text-anchor="start" x="1130.5" y="-85.2" font-family="Times,serif" font-weight="bold" font-size="16.00" fill="red">sb_tempChanged_counter</text>
<polygon fill="none" stroke="black" points="835,-52 835,-76 1419,-76 1419,-52 835,-52"/>
<text text-anchor="start" x="926.5" y="-61.2" font-family="Times,serif" font-size="16.00" fill="blue">emits ReceiveEvent </text>
<text text-anchor="start" x="1095.5" y="-61.2" font-family="Times,serif" font-weight="bold" font-size="16.00" fill="blue">sb_fanCmd_1_notification</text>
<polygon fill="none" stroke="black" points="835,-28 835,-52 1419,-52 1419,-28 835,-28"/>
<text text-anchor="start" x="922" y="-37.2" font-family="Times,serif" font-size="16.00" fill="blue">consumes ReceiveEvent </text>
<text text-anchor="start" x="1127" y="-37.2" font-family="Times,serif" font-weight="bold" font-size="16.00" fill="blue">sb_fanAck_notification</text>
<polygon fill="none" stroke="black" points="835,-4 835,-28 1419,-28 1419,-4 835,-4"/>
<text text-anchor="start" x="946.5" y="-13.2" font-family="Times,serif" font-size="16.00" fill="blue">consumes ReceiveEvent </text>
<text text-anchor="start" x="1151.5" y="-13.2" font-family="Times,serif" font-weight="bold" font-size="16.00" fill="blue">sb_tempChanged</text>
</g>
<!-- tsp_tempSensor&#45;&gt;tcp_tempControl -->
<g id="conn1" class="edge">
<title>tsp_tempSensor:sb_currentTemp&#45;&gt;tcp_tempControl:sb_currentTemp</title>
<path fill="none" stroke="red" d="M784.5,-112C811.07,-112 805.74,-148.1 823.84,-157.68"/>
<polygon fill="red" stroke="red" points="823.47,-161.19 834,-160 825.03,-154.37 823.47,-161.19"/>
</g>
<!-- tsp_tempSensor&#45;&gt;tcp_tempControl -->
<g id="conn2" class="edge">
<title>tsp_tempSensor:sb_tempChanged&#45;&gt;tcp_tempControl:sb_tempChanged</title>
<path fill="none" stroke="blue" d="M784.5,-64C811.07,-64 805.74,-27.9 823.84,-18.32"/>
<polygon fill="blue" stroke="blue" points="825.03,-21.63 834,-16 823.47,-14.81 825.03,-21.63"/>
</g>
<!-- tsp_tempSensor&#45;&gt;tcp_tempControl -->
<g id="conn3" class="edge">
<title>tsp_tempSensor:sb_tempChanged_counter&#45;&gt;tcp_tempControl:sb_tempChanged_counter</title>
<path fill="none" stroke="red" d="M784.5,-88C802.72,-88 809.62,-88 823.95,-88"/>
<polygon fill="red" stroke="red" points="824,-91.5 834,-88 824,-84.5 824,-91.5"/>
</g>
<!-- fp_fan -->
<g id="node3" class="node">
<title>fp_fan</title>
<polygon fill="none" stroke="black" points="1471,-136 1471,-160 2047,-160 2047,-136 1471,-136"/>
<text text-anchor="start" x="1731" y="-145.2" font-family="Times,serif" font-weight="bold" font-size="16.00">fp_fan</text>
<polygon fill="none" stroke="black" points="1471,-112 1471,-136 2047,-136 2047,-112 1471,-112"/>
<text text-anchor="start" x="1480" y="-121.2" font-family="Times,serif" font-size="16.00" fill="red">dataport sb_queue_union_art_DataContent_1_t </text>
<text text-anchor="start" x="1874" y="-121.2" font-family="Times,serif" font-weight="bold" font-size="16.00" fill="red">sb_fanCmd_queue</text>
<polygon fill="none" stroke="black" points="1471,-88 1471,-112 2047,-112 2047,-88 1471,-88"/>
<text text-anchor="start" x="1474" y="-97.2" font-family="Times,serif" font-size="16.00" fill="red">dataport sb_queue_union_art_DataContent_1_t </text>
<text text-anchor="start" x="1868" y="-97.2" font-family="Times,serif" font-weight="bold" font-size="16.00" fill="red">sb_fanAck_queue_1</text>
<polygon fill="none" stroke="black" points="1471,-64 1471,-88 2047,-88 2047,-64 1471,-64"/>
<text text-anchor="start" x="1562.5" y="-73.2" font-family="Times,serif" font-size="16.00" fill="blue">emits ReceiveEvent </text>
<text text-anchor="start" x="1731.5" y="-73.2" font-family="Times,serif" font-weight="bold" font-size="16.00" fill="blue">sb_fanAck_1_notification</text>
<polygon fill="none" stroke="black" points="1471,-40 1471,-64 2047,-64 2047,-40 1471,-40"/>
<text text-anchor="start" x="1550.5" y="-49.2" font-family="Times,serif" font-size="16.00" fill="blue">consumes ReceiveEvent </text>
<text text-anchor="start" x="1755.5" y="-49.2" font-family="Times,serif" font-weight="bold" font-size="16.00" fill="blue">sb_fanCmd_notification</text>
</g>
<!-- tcp_tempControl&#45;&gt;fp_fan -->
<g id="conn4" class="edge">
<title>tcp_tempControl:sb_fanCmd_1_notification&#45;&gt;fp_fan:sb_fanCmd_notification</title>
<path fill="none" stroke="blue" d="M1420,-64C1438.93,-64 1445.12,-55.77 1459.67,-52.94"/>
<polygon fill="blue" stroke="blue" points="1460.36,-56.39 1470,-52 1459.72,-49.42 1460.36,-56.39"/>
</g>
<!-- tcp_tempControl&#45;&gt;fp_fan -->
<g id="conn5" class="edge">
<title>tcp_tempControl:sb_fanCmd_queue_1&#45;&gt;fp_fan:sb_fanCmd_queue</title>
<path fill="none" stroke="red" d="M1420,-112C1438.93,-112 1445.12,-120.23 1459.67,-123.06"/>
<polygon fill="red" stroke="red" points="1459.72,-126.58 1470,-124 1460.36,-119.61 1459.72,-126.58"/>
</g>
<!-- fp_fan&#45;&gt;tcp_tempControl -->
<g id="conn6" class="edge">
<title>fp_fan:sb_fanAck_1_notification&#45;&gt;tcp_tempControl:sb_fanAck_notification</title>
<path fill="none" stroke="blue" d="M1470,-76C1446.47,-76 1446.68,-49.41 1429.82,-41.94"/>
<polygon fill="blue" stroke="blue" points="1430.49,-38.5 1420,-40 1429.13,-45.37 1430.49,-38.5"/>
</g>
<!-- fp_fan&#45;&gt;tcp_tempControl -->
<g id="conn7" class="edge">
<title>fp_fan:sb_fanAck_queue_1&#45;&gt;tcp_tempControl:sb_fanAck_queue</title>
<path fill="none" stroke="red" d="M1470,-100C1446.47,-100 1446.68,-126.59 1429.82,-134.06"/>
<polygon fill="red" stroke="red" points="1429.13,-130.63 1420,-136 1430.49,-137.5 1429.13,-130.63"/>
</g>
<!-- connectiontypekey -->
<g id="node4" class="node">
<title>connectiontypekey</title>
<polygon fill="none" stroke="black" points="395.5,-342 395.5,-366 688.5,-366 688.5,-342 395.5,-342"/>
<text text-anchor="start" x="440" y="-351.2" font-family="Times,serif" font-weight="bold" font-size="16.00">Key: Connection Types</text>
<polygon fill="none" stroke="black" points="395.5,-318 395.5,-342 624.5,-342 624.5,-318 395.5,-318"/>
<text text-anchor="start" x="441" y="-326.2" font-family="Times,serif" font-size="16.00" fill="red">seL4SharedData</text>
<polygon fill="red" stroke="transparent" points="624.5,-318 624.5,-342 688.5,-342 688.5,-318 624.5,-318"/>
<polygon fill="none" stroke="black" points="624.5,-318 624.5,-342 688.5,-342 688.5,-318 624.5,-318"/>
<text text-anchor="start" x="642.5" y="-326.2" font-family="Times,serif" font-size="16.00">red</text>
<polygon fill="none" stroke="black" points="395.5,-294 395.5,-318 624.5,-318 624.5,-294 395.5,-294"/>
<text text-anchor="start" x="441.5" y="-302.2" font-family="Times,serif" font-size="16.00" fill="blue">seL4Notification</text>
<polygon fill="blue" stroke="transparent" points="624.5,-294 624.5,-318 688.5,-318 688.5,-294 624.5,-294"/>
<polygon fill="none" stroke="black" points="624.5,-294 624.5,-318 688.5,-318 688.5,-294 624.5,-294"/>
<text text-anchor="start" x="638" y="-302.2" font-family="Times,serif" font-size="16.00">blue</text>
<polygon fill="none" stroke="black" points="395.5,-270 395.5,-294 624.5,-294 624.5,-270 395.5,-270"/>
<text text-anchor="start" x="457" y="-278.2" font-family="Times,serif" font-size="16.00" fill="orange">seL4RPCCall</text>
<polygon fill="orange" stroke="transparent" points="624.5,-270 624.5,-294 688.5,-294 688.5,-270 624.5,-270"/>
<polygon fill="none" stroke="black" points="624.5,-270 624.5,-294 688.5,-294 688.5,-270 624.5,-270"/>
<text text-anchor="start" x="627.5" y="-278.2" font-family="Times,serif" font-size="16.00">orange</text>
<polygon fill="none" stroke="black" points="395.5,-246 395.5,-270 624.5,-270 624.5,-246 395.5,-246"/>
<text text-anchor="start" x="442.5" y="-254.2" font-family="Times,serif" font-size="16.00" fill="green">seL4TimeServer</text>
<polygon fill="green" stroke="transparent" points="624.5,-246 624.5,-270 688.5,-270 688.5,-246 624.5,-246"/>
<polygon fill="none" stroke="black" points="624.5,-246 624.5,-270 688.5,-270 688.5,-246 624.5,-246"/>
<text text-anchor="start" x="632" y="-254.2" font-family="Times,serif" font-size="16.00">green</text>
<polygon fill="none" stroke="black" points="395.5,-222 395.5,-246 624.5,-246 624.5,-222 395.5,-222"/>
<text text-anchor="start" x="398.5" y="-230.2" font-family="Times,serif" font-size="16.00" fill="brown">seL4GlobalAsynchCallback</text>
<polygon fill="brown" stroke="transparent" points="624.5,-222 624.5,-246 688.5,-246 688.5,-222 624.5,-222"/>
<polygon fill="none" stroke="black" points="624.5,-222 624.5,-246 688.5,-246 688.5,-222 624.5,-222"/>
<text text-anchor="start" x="630.5" y="-230.2" font-family="Times,serif" font-size="16.00">brown</text>
<polygon fill="none" stroke="black" points="395.5,-198 395.5,-222 624.5,-222 624.5,-198 395.5,-198"/>
<text text-anchor="start" x="407.5" y="-206.2" font-family="Times,serif" font-size="16.00" fill="yellow">seL4VMDTBPassthrough</text>
<polygon fill="yellow" stroke="transparent" points="624.5,-198 624.5,-222 688.5,-222 688.5,-198 624.5,-198"/>
<polygon fill="none" stroke="black" points="624.5,-198 624.5,-222 688.5,-222 688.5,-198 624.5,-198"/>
<text text-anchor="start" x="630" y="-206.2" font-family="Times,serif" font-size="16.00">yellow</text>
<polygon fill="none" stroke="black" points="395.5,-174 395.5,-198 624.5,-198 624.5,-174 395.5,-174"/>
<text text-anchor="start" x="401.5" y="-182.2" font-family="Times,serif" font-size="16.00" fill="pink">seL4SharedDataWithCaps</text>
<polygon fill="pink" stroke="transparent" points="624.5,-174 624.5,-198 688.5,-198 688.5,-174 624.5,-174"/>
<polygon fill="none" stroke="black" points="624.5,-174 624.5,-198 688.5,-198 688.5,-174 624.5,-174"/>
<text text-anchor="start" x="638" y="-182.2" font-family="Times,serif" font-size="16.00">pink</text>
</g>
<!-- interfacetypekey -->
<g id="node5" class="node">
<title>interfacetypekey</title>
<polygon fill="none" stroke="black" points="446.5,-512 446.5,-536 636.5,-536 636.5,-512 446.5,-512"/>
<text text-anchor="start" x="449.5" y="-521.2" font-family="Times,serif" font-weight="bold" font-size="16.00">Key: Interface Types</text>
<polygon fill="none" stroke="black" points="446.5,-488 446.5,-512 553.5,-512 553.5,-488 446.5,-488"/>
<text text-anchor="start" x="464" y="-496.2" font-family="Times,serif" font-size="16.00" fill="red">dataport</text>
<polygon fill="red" stroke="transparent" points="553.5,-488 553.5,-512 636.5,-512 636.5,-488 553.5,-488"/>
<polygon fill="none" stroke="black" points="553.5,-488 553.5,-512 636.5,-512 636.5,-488 553.5,-488"/>
<text text-anchor="start" x="581" y="-496.2" font-family="Times,serif" font-size="16.00">red</text>
<polygon fill="none" stroke="black" points="446.5,-464 446.5,-488 553.5,-488 553.5,-464 446.5,-464"/>
<text text-anchor="start" x="477" y="-472.2" font-family="Times,serif" font-size="16.00" fill="blue">emits</text>
<polygon fill="blue" stroke="transparent" points="553.5,-464 553.5,-488 636.5,-488 636.5,-464 553.5,-464"/>
<polygon fill="none" stroke="black" points="553.5,-464 553.5,-488 636.5,-488 636.5,-464 553.5,-464"/>
<text text-anchor="start" x="576.5" y="-472.2" font-family="Times,serif" font-size="16.00">blue</text>
<polygon fill="none" stroke="black" points="446.5,-440 446.5,-464 553.5,-464 553.5,-440 446.5,-440"/>
<text text-anchor="start" x="459" y="-448.2" font-family="Times,serif" font-size="16.00" fill="blue">consumes</text>
<polygon fill="blue" stroke="transparent" points="553.5,-440 553.5,-464 636.5,-464 636.5,-440 553.5,-440"/>
<polygon fill="none" stroke="black" points="553.5,-440 553.5,-464 636.5,-464 636.5,-440 553.5,-440"/>
<text text-anchor="start" x="576.5" y="-448.2" font-family="Times,serif" font-size="16.00">blue</text>
<polygon fill="none" stroke="black" points="446.5,-416 446.5,-440 553.5,-440 553.5,-416 446.5,-416"/>
<text text-anchor="start" x="464.5" y="-424.2" font-family="Times,serif" font-size="16.00" fill="orange">provides</text>
<polygon fill="orange" stroke="transparent" points="553.5,-416 553.5,-440 636.5,-440 636.5,-416 553.5,-416"/>
<polygon fill="none" stroke="black" points="553.5,-416 553.5,-440 636.5,-440 636.5,-416 553.5,-416"/>
<text text-anchor="start" x="566" y="-424.2" font-family="Times,serif" font-size="16.00">orange</text>
<polygon fill="none" stroke="black" points="446.5,-392 446.5,-416 553.5,-416 553.5,-392 446.5,-392"/>
<text text-anchor="start" x="481.5" y="-400.2" font-family="Times,serif" font-size="16.00" fill="orange">uses</text>
<polygon fill="orange" stroke="transparent" points="553.5,-392 553.5,-416 636.5,-416 636.5,-392 553.5,-392"/>
<polygon fill="none" stroke="black" points="553.5,-392 553.5,-416 636.5,-416 636.5,-392 553.5,-392"/>
<text text-anchor="start" x="566" y="-400.2" font-family="Times,serif" font-size="16.00">orange</text>
</g>
</g>
</svg>
