<?xml version="1.0" encoding="UTF-8" standalone="no"?>
<!DOCTYPE svg PUBLIC "-//W3C//DTD SVG 1.1//EN"
 "http://www.w3.org/Graphics/SVG/1.1/DTD/svg11.dtd">
<!-- Generated by graphviz version 2.43.0 (0)
 -->
<!-- Title: %3 Pages: 1 -->
<svg width="492pt" height="409pt"
 viewBox="0.00 0.00 491.50 409.00" xmlns="http://www.w3.org/2000/svg" xmlns:xlink="http://www.w3.org/1999/xlink">
<g id="graph0" class="graph" transform="scale(1 1) rotate(0) translate(4 405)">
<title>%3</title>
<polygon fill="white" stroke="transparent" points="-4,4 -4,-405 487.5,-405 487.5,4 -4,4"/>
<!-- tsp_tempSensor -->
<g id="node1" class="node">
<title>tsp_tempSensor</title>
<path fill="none" stroke="black" d="M471.5,-401C471.5,-401 132.5,-401 132.5,-401 126.5,-401 120.5,-395 120.5,-389 120.5,-389 120.5,-377 120.5,-377 120.5,-371 126.5,-365 132.5,-365 132.5,-365 471.5,-365 471.5,-365 477.5,-365 483.5,-371 483.5,-377 483.5,-377 483.5,-389 483.5,-389 483.5,-395 477.5,-401 471.5,-401"/>
<text text-anchor="middle" x="302" y="-379.3" font-family="Times,serif" font-size="14.00">tsp_tempSensor::TempSensor_i_tsp_tempSensor</text>
</g>
<!-- tcp_tempControl -->
<g id="node2" class="node">
<title>tcp_tempControl</title>
<path fill="none" stroke="black" d="M362,-255C362,-255 12,-255 12,-255 6,-255 0,-249 0,-243 0,-243 0,-231 0,-231 0,-225 6,-219 12,-219 12,-219 362,-219 362,-219 368,-219 374,-225 374,-231 374,-231 374,-243 374,-243 374,-249 368,-255 362,-255"/>
<text text-anchor="middle" x="187" y="-233.3" font-family="Times,serif" font-size="14.00">tcp_tempControl::TempControl_i_tcp_tempControl</text>
</g>
<!-- tsp_tempSensor&#45;&gt;tcp_tempControl -->
<g id="edge1" class="edge">
<title>tsp_tempSensor&#45;&gt;tcp_tempControl</title>
<path fill="none" stroke="black" d="M198.32,-362.51C163.88,-353.71 131.78,-342.08 122,-328 112.87,-314.86 115.2,-306.48 122,-292 127.66,-279.95 137.47,-269.66 147.78,-261.39"/>
<polygon fill="none" stroke="black" points="209.03,-361.04 207.12,-368.81 199.35,-366.89 201.27,-359.12 209.03,-361.04"/>
<polyline fill="none" stroke="black" points="200.31,-363.01 198.37,-362.53 "/>
<polygon fill="none" stroke="black" points="153.7,-251.99 158.48,-258.41 152.06,-263.19 147.28,-256.77 153.7,-251.99"/>
<polyline fill="none" stroke="black" points="149.67,-259.98 148.07,-261.17 "/>
<text text-anchor="middle" x="143.5" y="-306.3" font-family="Times,serif" font-size="14.00">conn1</text>
</g>
<!-- tsp_tempSensor&#45;&gt;tcp_tempControl -->
<g id="edge4" class="edge">
<title>tsp_tempSensor&#45;&gt;tcp_tempControl</title>
<path fill="none" stroke="black" d="M234.67,-360.32C219.72,-352.43 205.51,-341.91 196,-328 183.57,-309.82 182.06,-284.54 183.23,-265.41"/>
<polygon fill="none" stroke="black" points="245.8,-361.31 242.28,-368.5 235.1,-364.98 238.61,-357.8 245.8,-361.31"/>
<polyline fill="none" stroke="black" points="236.85,-361.39 235.05,-360.51 "/>
<polygon fill="none" stroke="black" points="180.16,-254.87 188.12,-255.58 187.42,-263.54 179.45,-262.83 180.16,-254.87"/>
<polyline fill="none" stroke="black" points="183.43,-263.19 183.25,-265.18 "/>
<text text-anchor="middle" x="217.5" y="-306.3" font-family="Times,serif" font-size="14.00">conn3</text>
</g>
<!-- conn2 -->
<g id="node4" class="node">
<title>conn2</title>
<polygon fill="none" stroke="black" points="302,-328 247.54,-310 302,-292 356.46,-310 302,-328"/>
<text text-anchor="middle" x="302" y="-306.3" font-family="Times,serif" font-size="14.00">conn2</text>
</g>
<!-- tsp_tempSensor&#45;&gt;conn2 -->
<g id="edge2" class="edge">
<title>tsp_tempSensor&#45;&gt;conn2</title>
<path fill="none" stroke="black" d="M302,-364.81C302,-356.79 302,-347.05 302,-338.07"/>
<polygon fill="black" stroke="black" points="305.5,-338.03 302,-328.03 298.5,-338.03 305.5,-338.03"/>
</g>
<!-- conn8 -->
<g id="node7" class="node">
<title>conn8</title>
<polygon fill="none" stroke="black" points="428,-328 373.54,-310 428,-292 482.46,-310 428,-328"/>
<text text-anchor="middle" x="428" y="-306.3" font-family="Times,serif" font-size="14.00">conn8</text>
</g>
<!-- tsp_tempSensor&#45;&gt;conn8 -->
<g id="edge11" class="edge">
<title>tsp_tempSensor&#45;&gt;conn8</title>
<path fill="none" stroke="black" d="M326.32,-364.99C346.45,-352.93 374.96,-336.92 396.76,-325.47"/>
<polygon fill="black" stroke="black" points="398.37,-328.57 405.64,-320.87 395.16,-322.36 398.37,-328.57"/>
</g>
<!-- fp_fan -->
<g id="node3" class="node">
<title>fp_fan</title>
<path fill="none" stroke="black" d="M213.5,-109C213.5,-109 80.5,-109 80.5,-109 74.5,-109 68.5,-103 68.5,-97 68.5,-97 68.5,-85 68.5,-85 68.5,-79 74.5,-73 80.5,-73 80.5,-73 213.5,-73 213.5,-73 219.5,-73 225.5,-79 225.5,-85 225.5,-85 225.5,-97 225.5,-97 225.5,-103 219.5,-109 213.5,-109"/>
<text text-anchor="middle" x="147" y="-87.3" font-family="Times,serif" font-size="14.00">fp_fan::Fan_i_fp_fan</text>
</g>
<!-- tcp_tempControl&#45;&gt;fp_fan -->
<g id="edge7" class="edge">
<title>tcp_tempControl&#45;&gt;fp_fan</title>
<path fill="none" stroke="black" d="M54.33,-214.62C38.59,-206.77 24.44,-196.2 14,-182 4.52,-169.11 5.06,-159.27 14,-146 24.79,-129.98 41.23,-118.71 58.91,-110.78"/>
<polygon fill="none" stroke="black" points="65.43,-215.29 62.11,-222.57 54.83,-219.24 58.16,-211.97 65.43,-215.29"/>
<polyline fill="none" stroke="black" points="56.49,-215.6 54.68,-214.77 "/>
<polygon fill="none" stroke="black" points="66.73,-103.24 69.78,-110.63 62.38,-113.68 59.33,-106.29 66.73,-103.24"/>
<polyline fill="none" stroke="black" points="60.86,-109.98 59.01,-110.75 "/>
<text text-anchor="middle" x="35.5" y="-160.3" font-family="Times,serif" font-size="14.00">conn5</text>
</g>
<!-- conn4 -->
<g id="node5" class="node">
<title>conn4</title>
<polygon fill="none" stroke="black" points="120,-182 65.54,-164 120,-146 174.46,-164 120,-182"/>
<text text-anchor="middle" x="120" y="-160.3" font-family="Times,serif" font-size="14.00">conn4</text>
</g>
<!-- tcp_tempControl&#45;&gt;conn4 -->
<g id="edge5" class="edge">
<title>tcp_tempControl&#45;&gt;conn4</title>
<path fill="none" stroke="black" d="M170.78,-218.81C161.4,-208.87 149.53,-196.29 139.62,-185.79"/>
<polygon fill="black" stroke="black" points="141.91,-183.12 132.5,-178.25 136.82,-187.93 141.91,-183.12"/>
</g>
<!-- fp_fan&#45;&gt;tcp_tempControl -->
<g id="edge10" class="edge">
<title>fp_fan&#45;&gt;tcp_tempControl</title>
<path fill="none" stroke="black" d="M167.95,-117.28C173.92,-125.87 179.69,-135.88 183,-146 189.64,-166.28 190.33,-190.51 189.54,-208.72"/>
<polygon fill="none" stroke="black" points="158.78,-111.56 165.23,-106.82 169.97,-113.27 163.53,-118.01 158.78,-111.56"/>
<polyline fill="none" stroke="black" points="166.75,-115.64 167.93,-117.25 "/>
<polygon fill="none" stroke="black" points="192.9,-219.17 184.92,-218.68 185.41,-210.7 193.4,-211.19 192.9,-219.17"/>
<polyline fill="none" stroke="black" points="189.4,-210.94 189.53,-208.95 "/>
<text text-anchor="middle" x="211.5" y="-160.3" font-family="Times,serif" font-size="14.00">conn7</text>
</g>
<!-- conn6 -->
<g id="node6" class="node">
<title>conn6</title>
<polygon fill="none" stroke="black" points="227,-36 172.54,-18 227,0 281.46,-18 227,-36"/>
<text text-anchor="middle" x="227" y="-14.3" font-family="Times,serif" font-size="14.00">conn6</text>
</g>
<!-- fp_fan&#45;&gt;conn6 -->
<g id="edge8" class="edge">
<title>fp_fan&#45;&gt;conn6</title>
<path fill="none" stroke="black" d="M166.37,-72.81C178.13,-62.38 193.16,-49.03 205.32,-38.24"/>
<polygon fill="black" stroke="black" points="207.67,-40.83 212.83,-31.58 203.02,-35.6 207.67,-40.83"/>
</g>
<!-- conn2&#45;&gt;tcp_tempControl -->
<g id="edge3" class="edge">
<title>conn2&#45;&gt;tcp_tempControl</title>
<path fill="none" stroke="black" d="M284.03,-297.91C267.85,-287.92 243.58,-272.93 223.36,-260.45"/>
<polygon fill="black" stroke="black" points="225.04,-257.37 214.69,-255.1 221.36,-263.33 225.04,-257.37"/>
</g>
<!-- conn4&#45;&gt;fp_fan -->
<g id="edge6" class="edge">
<title>conn4&#45;&gt;fp_fan</title>
<path fill="none" stroke="black" d="M125.86,-147.59C129.09,-139.09 133.2,-128.29 136.93,-118.48"/>
<polygon fill="black" stroke="black" points="140.21,-119.71 140.49,-109.12 133.66,-117.22 140.21,-119.71"/>
</g>
<!-- conn6&#45;&gt;tcp_tempControl -->
<g id="edge9" class="edge">
<title>conn6&#45;&gt;tcp_tempControl</title>
<path fill="none" stroke="black" d="M232.15,-34.5C241.14,-64.28 256.96,-131.05 237,-182 232.64,-193.13 224.78,-203.34 216.57,-211.82"/>
<polygon fill="black" stroke="black" points="214.11,-209.33 209.34,-218.8 218.97,-214.37 214.11,-209.33"/>
</g>
<!-- conn8&#45;&gt;tsp_tempSensor -->
<g id="edge12" class="edge">
<title>conn8&#45;&gt;tsp_tempSensor</title>
<path fill="none" stroke="black" d="M411.95,-322.98C395.57,-333.11 369.72,-347.87 347.15,-360.1"/>
<polygon fill="black" stroke="black" points="345.19,-357.18 338.04,-364.99 348.51,-363.35 345.19,-357.18"/>
</g>
</g>
</svg>
